<svg width="24" height="24" viewBox="0 0 24 24" fill="none" xmlns="http://www.w3.org/2000/svg">
<path d="M3 6L21 6" stroke="#FF0000" stroke-width="2" stroke-linecap="round" stroke-linejoin="round"/>
<path d="M4 20L20 20C20.5523 20 21 19.5523 21 19L21 5C21 4.44771 20.5523 4 20 4L4 4C3.44772 4 3 4.44772 3 5L3 19C3 19.5523 3.44772 20 4 20Z" stroke="#FF0000" stroke-width="2" stroke-linecap="round" stroke-linejoin="round"/>
<path d="M14.7071 10.2929C14.3166 9.90237 13.6834 9.90237 13.2929 10.2929C12.9024 10.6834 12.9024 11.3166 13.2929 11.7071L14.7071 10.2929ZM16 13L16.7071 13.7071C17.0976 13.3166 17.0976 12.6834 16.7071 12.2929L16 13ZM13.2929 14.2929C12.9024 14.6834 12.9024 15.3166 13.2929 15.7071C13.6834 16.0976 14.3166 16.0976 14.7071 15.7071L13.2929 14.2929ZM13.2929 11.7071L15.2929 13.7071L16.7071 12.2929L14.7071 10.2929L13.2929 11.7071ZM15.2929 12.2929L13.2929 14.2929L14.7071 15.7071L16.7071 13.7071L15.2929 12.2929Z" fill="#FF0000"/>
<path d="M9.29289 15.7071C9.68342 16.0976 10.3166 16.0976 10.7071 15.7071C11.0976 15.3166 11.0976 14.6834 10.7071 14.2929L9.29289 15.7071ZM8 13L7.29289 12.2929C7.10536 12.4804 7 12.7348 7 13C7 13.2652 7.10536 13.5196 7.29289 13.7071L8 13ZM10.7071 11.7071C11.0976 11.3166 11.0976 10.6834 10.7071 10.2929C10.3166 9.90237 9.68342 9.90237 9.29289 10.2929L10.7071 11.7071ZM10.7071 14.2929L8.70711 12.2929L7.29289 13.7071L9.29289 15.7071L10.7071 14.2929ZM8.70711 13.7071L10.7071 11.7071L9.29289 10.2929L7.29289 12.2929L8.70711 13.7071Z" fill="#FF0000"/>
</svg>
